{"glyphs":{":":{"x_min":0,"x_max":303,"ha":303,"o":"m 97 95 q 117 95 132 80 q 147 65 147 45 q 147 23 133 9 q 118 -5 97 -5 q 76 -5 62 9 q 48 23 48 45 q 48 65 62 80 q 77 95 97 95 z m 159 424 q 180 424 194 409 q 209 395 209 374 q 209 354 194 339 q 179 324 159 324 q 139 324 124 339 q 109 354 109 374 q 109 396 123 410 q 137 424 159 424 z"},"$":{"x_min":0,"x_max":551,"ha":551,"o":"m 231 22 l 237 22 q 304 22 348 63 q 391 105 391 168 q 391 215 365 248 q 339 281 281 306 z m 265 401 l 314 678 l 311 678 q 240 678 198 639 q 157 600 157 534 q 157 486 183 454 q 208 422 265 401 z m 365 778 l 351 701 q 418 690 456 651 q 493 612 493 554 q 493 525 483 509 q 474 492 457 492 q 444 492 437 502 q 429 513 429 530 q 429 545 435 562 q 441 580 453 601 q 441 632 415 651 q 388 669 347 675 l 296 387 q 381 357 423 311 q 465 265 465 202 q 465 115 399 53 q 334 -8 238 -8 l 226 -8 l 210 -100 l 177 -100 l 194 -4 q 122 9 82 49 q 42 88 42 147 q 42 182 55 204 q 67 227 87 227 q 100 227 108 218 q 116 208 116 193 q 116 174 107 155 q 99 136 81 116 q 87 80 118 56 q 149 31 199 24 l 250 316 q 167 348 128 392 q 90 436 90 499 q 90 590 152 648 q 214 705 314 705 l 319 705 l 332 778 z"},"?":{"x_min":0,"x_max":470,"ha":470,"o":"m 188 95 q 208 95 223 80 q 238 65 238 45 q 238 23 224 9 q 209 -5 188 -5 q 167 -5 153 10 q 138 24 138 45 q 138 65 153 80 q 168 95 188 95 z m 187 165 q 195 222 210 264 q 225 306 252 346 q 256 353 265 365 q 336 471 336 554 q 336 616 308 652 q 280 687 232 687 q 182 687 151 659 q 121 631 116 581 q 135 572 144 556 q 154 540 154 518 q 154 503 146 493 q 138 484 125 484 q 105 484 93 503 q 80 521 80 551 q 80 628 130 677 q 180 727 258 727 q 327 727 369 684 q 411 641 411 569 q 411 474 311 356 q 286 327 274 311 q 254 285 238 246 q 223 208 213 160 z"},"<":{"x_min":0,"x_max":833,"ha":833,"o":"m 704 559 l 704 497 l 216 298 l 704 100 l 704 37 l 129 273 l 129 323 z"},"'":{"x_min":0,"x_max":170,"ha":170,"o":"m 93 422 l 77 422 l 45 645 q 44 649 44 653 q 44 657 44 664 q 44 688 54 701 q 65 714 85 714 q 105 714 116 701 q 127 688 127 665 q 127 661 125 648 q 125 646 125 645 z"},"=":{"x_min":0,"x_max":833,"ha":833,"o":"m 124 233 l 709 233 l 709 176 l 124 176 z m 124 420 l 709 420 l 709 363 l 124 363 z"},"a":{"x_min":0,"x_max":549,"ha":549,"o":"m 320 212 l 356 372 q 352 414 332 437 q 312 461 281 461 q 249 461 216 433 q 184 405 159 354 q 130 297 114 234 q 97 170 97 123 q 97 79 111 58 q 125 36 155 36 q 173 36 194 49 q 215 62 239 88 q 269 121 292 158 q 316 195 320 212 z m 384 486 l 458 486 l 375 142 q 370 121 367 102 q 364 83 364 71 q 364 58 374 47 q 384 36 397 36 q 417 36 438 60 q 458 83 479 129 l 502 120 q 478 58 440 25 q 402 -9 359 -9 q 327 -9 310 10 q 294 29 294 67 q 294 81 296 98 q 297 116 301 135 q 258 62 213 27 q 169 -9 122 -9 q 71 -9 45 25 q 18 60 18 125 q 18 188 39 255 q 61 321 98 375 q 135 428 181 457 q 226 486 272 486 q 308 486 332 471 q 356 457 369 427 z"},"L":{"x_min":0,"x_max":595,"ha":595,"o":"m 350 718 l 350 685 q 296 684 280 672 q 264 661 257 620 l 160 32 l 316 32 q 380 32 409 39 q 438 46 458 62 q 482 82 499 116 q 515 150 531 213 l 557 213 q 546 161 536 108 q 525 55 515 0 l 9 0 l 9 32 q 49 33 65 45 q 81 57 88 98 l 170 592 q 173 612 175 627 q 177 642 177 647 q 177 666 163 674 q 149 683 110 685 l 110 718 q 154 715 180 714 q 206 713 222 713 q 247 713 278 714 q 309 715 350 718 z"},"3":{"x_min":0,"x_max":551,"ha":551,"o":"m 65 128 q 74 82 116 53 q 157 25 216 25 q 294 25 342 74 q 389 124 389 205 q 389 266 354 299 q 318 331 251 331 q 239 331 213 329 l 211 329 l 223 364 q 309 373 359 421 q 408 468 408 542 q 408 603 370 640 q 333 678 272 678 q 215 678 177 642 q 138 606 138 553 l 138 544 q 169 543 187 531 q 205 518 205 497 q 205 479 196 469 q 187 460 169 460 q 140 460 120 483 q 101 506 101 542 q 101 615 155 662 q 208 709 293 709 q 378 709 430 663 q 483 618 483 544 q 483 471 433 422 q 383 372 289 352 q 376 348 422 309 q 468 270 468 199 q 468 107 402 49 q 336 -9 233 -9 q 142 -9 85 36 q 29 81 29 152 q 29 187 44 210 q 60 233 82 233 q 96 233 103 224 q 111 215 111 199 q 111 181 99 163 q 87 145 65 128 z"},";":{"x_min":0,"x_max":303,"ha":303,"o":"m -13 -142 q 47 -115 79 -83 q 112 -51 112 -20 q 112 -10 110 -5 q 107 0 103 0 q 102 0 93 -2 q 84 -5 77 -5 q 61 -5 49 8 q 38 20 38 39 q 38 64 53 80 q 68 95 93 95 q 121 95 138 74 q 155 53 155 18 q 155 -42 115 -90 q 74 -137 -3 -166 z m 159 424 q 180 424 194 409 q 209 395 209 374 q 209 354 194 339 q 179 324 159 324 q 139 324 124 339 q 109 354 109 374 q 109 396 123 410 q 137 424 159 424 z"},"J":{"x_min":0,"x_max":380,"ha":380,"o":"m 378 718 l 378 685 q 329 683 314 671 q 299 660 292 617 l 226 211 q 205 82 189 31 q 172 -21 148 -53 q 121 -89 84 -109 q 48 -128 7 -128 q -37 -128 -66 -106 q -95 -83 -95 -52 q -95 -34 -85 -23 q -75 -12 -59 -12 q -38 -12 -23 -29 q -9 -46 -9 -73 q -9 -81 -9 -86 q -10 -91 -11 -96 q -4 -98 3 -99 q 10 -100 16 -100 q 56 -100 79 -63 q 103 -26 118 66 l 204 592 q 207 612 209 627 q 211 642 211 647 q 211 667 195 676 q 179 685 144 685 l 118 685 l 118 718 q 163 715 196 714 q 229 713 256 713 q 273 713 301 714 q 328 715 378 718 z"},"V":{"x_min":0,"x_max":609,"ha":609,"o":"m 262 718 l 262 685 q 223 685 208 676 q 193 667 193 645 q 193 635 198 610 q 199 606 199 604 l 294 134 l 495 571 q 507 599 514 619 q 521 640 521 650 q 521 681 451 685 l 450 685 l 450 718 q 485 715 510 714 q 534 713 551 713 q 564 713 583 714 q 603 715 643 718 l 643 685 q 612 683 594 667 q 575 652 548 594 l 268 3 l 243 -9 l 107 612 q 96 661 81 672 q 65 682 21 685 l 21 718 q 62 715 89 714 q 116 713 136 713 q 155 713 184 714 q 214 715 262 718 z"},"\"":{"x_min":0,"x_max":331,"ha":331,"o":"m 253 422 l 238 422 l 206 645 q 206 646 206 648 q 204 659 204 664 q 204 688 215 701 q 226 714 246 714 q 266 714 276 701 q 287 688 287 665 q 287 658 287 654 q 287 649 286 645 z m 93 422 l 77 422 l 46 645 q 45 653 44 658 q 44 662 44 665 q 44 688 55 701 q 65 714 85 714 q 105 714 116 701 q 127 688 127 665 q 127 661 125 648 q 125 646 125 645 z"},"7":{"x_min":0,"x_max":551,"ha":551,"o":"m 149 708 l 125 625 q 153 670 175 687 q 197 703 227 703 q 269 703 338 692 q 407 681 433 681 q 465 681 486 688 q 507 695 519 709 l 538 693 q 496 612 400 450 q 303 289 279 212 q 259 148 247 65 q 234 -17 220 -17 q 216 -17 210 -14 q 204 -11 199 -6 l 176 16 q 169 22 166 29 q 163 36 163 44 q 163 78 192 154 q 220 229 267 308 q 293 353 371 468 q 448 584 473 649 q 452 633 429 626 q 406 619 376 619 q 344 619 288 627 q 232 635 210 635 q 171 635 145 611 q 119 587 90 524 l 68 532 q 83 572 98 614 q 112 657 129 712 z"},"S":{"x_min":0,"x_max":576,"ha":576,"o":"m 491 697 l 513 697 q 504 651 497 601 q 490 551 485 497 l 462 497 l 462 510 q 462 605 427 649 q 392 694 316 694 q 252 694 214 658 q 176 623 176 564 q 176 498 308 415 l 321 406 q 422 343 456 299 q 489 255 489 198 q 489 111 425 51 q 361 -10 267 -10 q 213 -10 165 10 q 117 29 75 68 l 62 31 l 41 31 q 50 83 57 137 q 63 191 68 247 l 94 247 q 94 246 94 244 q 92 221 92 210 q 92 121 137 71 q 182 22 262 22 q 326 22 365 60 q 403 98 403 163 q 403 210 375 246 q 348 282 243 346 q 148 404 120 442 q 92 480 92 531 q 92 618 152 673 q 212 727 310 727 q 355 727 397 713 q 440 698 481 669 z"},"}":{"x_min":0,"x_max":500,"ha":500,"o":"m 87 740 l 92 740 q 197 740 237 704 q 277 668 277 571 l 277 467 q 277 390 305 361 q 333 333 414 325 l 414 296 q 334 290 306 260 q 277 231 277 154 l 277 50 q 277 -47 237 -83 q 197 -119 92 -119 l 87 -119 l 87 -94 q 157 -93 182 -68 q 207 -42 207 34 l 207 104 q 207 214 237 255 q 267 295 347 310 q 267 325 237 365 q 207 406 207 516 l 207 586 q 207 662 182 688 q 156 714 87 715 z"},"Z":{"x_min":0,"x_max":660,"ha":660,"o":"m 300 718 l 606 718 l 136 37 l 361 37 q 464 37 504 72 q 544 106 563 203 l 590 203 q 578 146 569 94 q 561 43 555 -5 q 517 -4 459 -2 q 384 0 375 0 l 10 0 l 480 681 l 317 681 q 188 681 156 654 q 124 627 111 542 l 86 542 q 93 595 97 639 q 101 684 102 723 q 154 721 203 719 q 253 718 300 718 z"},"x":{"x_min":0,"x_max":558,"ha":558,"o":"m 499 372 l 479 372 q 480 380 480 387 q 481 395 481 403 q 481 427 472 438 q 462 450 444 450 q 419 450 389 417 q 359 383 294 275 q 298 255 305 218 q 336 51 381 51 q 404 51 425 72 q 447 93 467 135 l 484 125 q 456 57 420 24 q 385 -10 342 -10 q 296 -10 274 33 q 251 77 235 209 q 177 98 131 45 q 84 -7 43 -7 q 22 -7 11 6 q 0 18 0 42 q 0 58 5 82 q 10 105 19 135 l 38 135 q 33 114 30 99 q 28 84 28 72 q 28 51 36 40 q 43 29 58 29 q 86 29 125 75 q 163 122 220 225 q 206 363 189 403 q 172 443 138 443 q 116 443 94 425 q 72 408 49 372 l 33 381 q 63 432 102 459 q 142 487 184 487 q 233 487 255 445 q 277 403 282 295 q 335 397 375 442 q 415 486 453 486 q 477 486 490 471 q 502 456 502 427 q 502 415 501 401 q 500 388 499 372 z"},")":{"x_min":0,"x_max":389,"ha":389,"o":"m -44 -219 l -52 -204 q 75 -131 149 7 q 222 146 222 313 q 222 421 189 524 q 155 626 86 731 l 98 742 q 188 638 237 522 q 285 406 285 293 q 285 128 198 -7 q 111 -143 -44 -219 z"},"&":{"x_min":0,"x_max":720,"ha":720,"o":"m 275 380 q 266 382 257 385 q 247 388 234 394 q 183 378 151 328 q 120 279 120 213 q 120 133 171 83 q 222 32 304 32 q 397 32 450 82 q 504 132 504 218 q 504 246 497 273 q 491 301 477 330 q 461 332 449 332 q 438 333 430 333 q 393 333 371 319 q 349 306 339 277 q 354 265 361 250 q 369 235 369 220 q 369 205 361 195 q 353 185 340 185 q 324 185 313 200 q 303 215 303 239 q 303 295 349 331 q 394 366 469 366 q 493 366 547 362 q 601 357 630 357 q 667 357 680 365 q 694 374 704 398 l 719 391 q 706 344 692 329 q 678 315 644 315 q 620 315 588 317 q 557 318 520 322 q 531 302 536 280 q 541 258 541 231 q 541 125 467 58 q 394 -9 280 -9 q 171 -9 104 50 q 37 108 37 201 q 37 275 80 328 q 124 381 207 409 q 156 434 130 469 q 105 505 105 552 q 105 626 161 677 q 217 727 301 727 q 378 727 428 692 q 477 658 477 606 q 477 589 470 579 q 463 570 450 570 q 431 570 421 590 q 411 610 411 648 q 411 673 389 686 q 368 698 324 698 q 260 698 223 657 q 186 615 186 544 q 186 488 211 454 q 237 419 288 406 z"},"_":{"x_min":0,"x_max":500,"ha":500,"o":"m 0 -178 l 500 -178 l 500 -236 l 0 -236 z"},"v":{"x_min":0,"x_max":505,"ha":505,"o":"m 274 486 q 220 380 189 281 q 158 182 158 120 q 158 76 174 55 q 190 34 224 34 q 267 34 308 76 q 349 118 380 195 q 396 232 405 272 q 415 311 415 328 q 415 335 399 374 q 384 413 384 443 q 384 463 392 475 q 399 486 413 486 q 432 486 441 463 q 450 440 450 394 q 450 332 431 263 q 412 194 376 130 q 338 62 291 27 q 244 -9 192 -9 q 139 -9 112 26 q 84 60 84 126 q 84 199 121 279 q 157 359 234 456 q 209 439 186 432 q 163 424 140 424 q 128 424 104 427 q 81 430 70 430 q 50 430 34 415 q 18 400 -2 364 l -18 374 q 12 433 37 456 q 62 480 93 480 q 106 480 139 473 q 173 467 193 467 q 207 467 220 471 q 233 475 255 486 z"},"O":{"x_min":0,"x_max":729,"ha":729,"o":"m 597 445 q 597 558 544 625 q 492 692 404 692 q 354 692 309 668 q 264 645 232 601 q 186 537 159 449 q 133 362 133 270 q 133 155 185 87 q 237 20 325 20 q 379 20 426 47 q 472 74 508 128 q 550 188 573 272 q 597 356 597 445 z m 410 725 q 534 725 613 635 q 693 545 693 403 q 693 332 672 264 q 652 197 612 140 q 561 66 489 27 q 417 -12 333 -12 q 201 -12 120 78 q 38 167 38 314 q 38 389 59 456 q 80 523 120 578 q 173 651 246 688 q 319 725 410 725 z"},"(":{"x_min":0,"x_max":389,"ha":389,"o":"m 425 727 q 298 654 224 516 q 151 377 151 210 q 151 102 185 0 q 218 -103 288 -208 l 275 -219 q 185 -115 136 1 q 88 117 88 230 q 88 395 175 530 q 262 666 417 742 z"},"C":{"x_min":0,"x_max":634,"ha":634,"o":"m 606 683 l 630 683 q 623 638 615 585 q 606 533 596 459 l 570 459 q 572 477 573 492 q 574 507 574 519 q 574 598 529 645 q 483 692 407 692 q 283 692 207 579 q 132 467 132 282 q 132 165 186 100 q 239 36 336 36 q 411 36 465 73 q 519 111 558 190 l 581 180 q 541 86 474 39 q 407 -9 316 -9 q 188 -9 112 74 q 36 157 36 297 q 36 485 138 606 q 240 727 398 727 q 454 727 503 706 q 552 685 590 644 z"},"W":{"x_min":0,"x_max":935,"ha":935,"o":"m 266 718 l 266 685 q 227 685 212 676 q 197 667 197 645 q 197 638 201 617 q 202 609 203 604 l 287 134 l 478 588 l 476 612 q 473 653 455 668 q 438 683 389 685 l 389 718 q 430 715 457 714 q 485 713 505 713 q 523 713 552 714 q 581 715 630 718 l 630 685 q 588 684 575 675 q 562 667 562 641 q 562 627 562 619 q 563 611 564 604 l 625 143 l 819 571 q 832 599 838 619 q 845 640 845 650 q 845 681 775 685 l 774 685 l 774 718 q 810 715 833 714 q 857 713 875 713 q 887 713 906 714 q 924 715 966 718 l 966 685 q 936 683 917 668 q 899 653 872 594 l 592 3 l 567 -9 l 488 528 l 261 3 l 236 -9 l 111 612 q 102 659 86 671 q 71 682 25 685 l 25 718 q 66 715 93 714 q 120 713 140 713 q 159 713 188 714 q 218 715 266 718 z"},"A":{"x_min":0,"x_max":616,"ha":616,"o":"m 371 308 l 325 627 l 176 308 z m 484 141 q 485 136 486 126 q 500 38 573 33 l 573 0 q 523 3 498 4 q 474 5 459 5 q 438 5 408 4 q 379 3 332 0 l 332 33 q 375 36 388 46 q 401 56 401 85 q 401 92 398 111 q 397 118 397 122 l 375 275 l 163 275 l 87 114 q 81 101 77 86 q 73 72 73 63 q 73 47 86 40 q 100 34 138 33 l 138 0 q 98 3 76 4 q 55 5 41 5 q 31 5 14 4 q -3 3 -47 0 l -47 33 q -16 35 4 52 q 25 70 58 139 l 295 632 q 311 650 326 672 q 341 695 356 723 l 389 731 z"},"f":{"x_min":0,"x_max":310,"ha":310,"o":"m 314 458 l 309 428 l 201 428 l 166 213 q 142 66 124 -22 q 106 -109 85 -180 l 2 -213 q 46 -66 91 214 l 94 234 l 125 428 l 30 428 l 34 458 l 129 458 q 150 599 201 671 q 253 743 333 743 q 381 743 413 717 q 444 691 444 652 q 444 630 435 618 q 426 606 409 606 q 395 606 385 617 q 376 628 376 645 q 376 657 380 672 q 385 687 385 690 q 385 700 372 707 q 359 715 341 715 q 289 715 260 663 q 230 611 205 458 z"},"Q":{"x_min":0,"x_max":729,"ha":729,"o":"m 682 -50 l 682 -79 q 650 -102 613 -115 q 576 -127 540 -127 q 474 -127 432 -96 q 390 -66 379 -10 q 368 -11 357 -11 q 346 -11 327 -11 q 200 -11 119 79 q 38 169 38 314 q 38 389 59 456 q 80 523 120 578 q 171 649 244 687 q 317 725 401 725 q 532 725 612 637 q 693 548 693 404 q 693 273 630 166 q 566 60 459 11 q 471 -39 498 -62 q 525 -85 572 -85 q 602 -85 628 -77 q 654 -68 682 -50 z m 173 104 q 204 61 238 42 q 273 22 318 22 q 330 22 344 23 q 358 25 375 28 q 370 77 340 102 q 311 128 260 128 q 236 128 215 122 q 194 116 173 104 z m 164 127 q 199 145 234 154 q 270 163 305 163 q 362 163 399 136 q 436 110 450 58 q 517 109 557 215 q 597 320 597 447 q 597 558 544 625 q 491 692 404 692 q 344 692 294 659 q 244 627 207 564 q 172 504 152 426 q 132 348 132 269 q 132 227 140 193 q 147 159 164 127 z"},"w":{"x_min":0,"x_max":755,"ha":755,"o":"m 274 486 q 219 379 188 279 q 157 178 157 116 q 157 79 168 62 q 180 45 205 45 q 255 45 313 144 q 371 243 411 403 l 428 476 l 492 476 q 455 342 438 258 q 421 174 421 127 q 421 87 435 66 q 449 45 476 45 q 510 45 547 83 q 585 122 615 189 q 635 233 647 276 q 660 319 660 333 q 660 339 649 373 q 638 406 638 429 q 638 457 646 471 q 653 486 667 486 q 685 486 693 471 q 701 457 701 425 q 701 373 684 305 q 667 237 636 170 q 597 84 544 38 q 491 -9 435 -9 q 392 -9 373 18 q 353 45 353 105 q 353 128 355 147 q 358 166 363 182 q 315 82 269 36 q 223 -9 169 -9 q 127 -9 105 20 q 82 49 82 102 q 82 178 116 259 q 150 340 234 456 q 209 439 186 432 q 163 424 140 424 q 128 424 104 427 q 81 430 70 430 q 50 430 34 415 q 18 400 -2 364 l -18 374 q 10 430 36 453 q 61 476 93 476 q 106 476 139 471 q 173 467 193 467 q 207 467 220 471 q 233 475 255 486 z"},"-":{"x_min":0,"x_max":345,"ha":345,"o":"m 277 274 l 266 214 l 31 214 l 42 274 z"},"E":{"x_min":0,"x_max":657,"ha":657,"o":"m 595 718 l 589 524 l 563 524 q 563 533 564 541 q 564 548 564 556 q 564 629 537 657 q 510 685 432 685 l 269 685 l 219 387 l 264 387 q 357 387 384 409 q 410 431 419 495 l 444 495 q 432 434 422 369 q 412 303 404 232 l 379 232 q 380 250 381 264 q 382 278 382 287 q 382 328 366 341 q 351 354 295 354 l 213 354 l 160 32 l 337 32 q 401 32 430 39 q 459 46 479 62 q 500 80 515 109 q 530 138 551 204 l 577 204 q 566 155 555 104 q 545 53 535 0 l 9 0 l 9 32 q 49 33 65 45 q 81 57 88 98 l 170 592 q 173 612 175 627 q 177 642 177 647 q 177 666 163 674 q 149 683 110 685 l 110 718 z"},"s":{"x_min":0,"x_max":410,"ha":410,"o":"m 302 425 q 285 444 263 453 q 241 462 210 462 q 171 462 146 439 q 121 416 121 381 q 121 330 208 277 l 216 273 q 285 232 302 206 q 319 179 319 139 q 319 75 273 33 q 228 -9 156 -9 q 91 -9 50 25 q 9 59 9 112 q 9 134 19 148 q 29 162 45 162 q 59 162 67 152 q 76 142 76 126 q 76 110 65 92 q 54 74 54 70 q 54 53 84 34 q 114 16 152 16 q 196 16 223 41 q 250 65 250 105 q 250 159 161 211 q 140 223 129 230 q 90 253 73 281 q 56 309 56 348 q 56 407 99 447 q 142 486 208 486 q 268 486 309 457 q 350 427 350 385 q 350 364 341 352 q 333 340 318 340 q 304 340 296 350 q 287 361 287 378 q 287 388 291 400 q 294 412 302 425 z"},">":{"x_min":0,"x_max":833,"ha":833,"o":"m 129 559 l 704 323 l 704 273 l 129 37 l 129 100 l 617 298 l 129 497 z"},"l":{"x_min":0,"x_max":292,"ha":292,"o":"m 118 126 q 115 111 113 97 q 111 84 111 76 q 111 57 120 47 q 129 36 145 36 q 166 36 188 60 q 211 83 238 133 l 259 122 q 227 55 190 23 q 153 -9 109 -9 q 74 -9 54 10 q 34 30 34 64 q 34 75 36 90 q 38 104 45 136 l 152 619 q 156 635 158 649 q 160 664 160 674 q 160 708 104 710 q 96 711 91 711 l 96 739 q 111 738 125 737 q 140 737 159 737 q 178 737 202 738 q 225 740 254 743 z"},"8":{"x_min":0,"x_max":551,"ha":551,"o":"m 244 343 q 171 322 137 280 q 102 238 102 172 q 102 104 141 62 q 180 20 242 20 q 307 20 351 65 q 395 110 395 177 q 395 236 362 272 q 330 309 244 343 z m 214 363 q 153 398 126 436 q 100 473 100 523 q 100 604 156 656 q 213 708 303 708 q 387 708 439 662 q 490 617 490 542 q 490 479 456 438 q 421 396 346 367 q 410 341 441 299 q 473 256 473 198 q 473 112 404 52 q 335 -9 236 -9 q 146 -9 89 40 q 33 89 33 167 q 33 238 81 290 q 128 342 214 363 z m 314 386 q 369 401 399 444 q 430 487 430 549 q 430 607 395 643 q 360 678 302 678 q 243 678 207 641 q 170 604 170 543 q 170 493 203 457 q 237 420 314 386 z"},"\\":{"x_min":0,"x_max":296,"ha":296,"o":"m 71 727 l 292 -93 l 246 -93 l 24 727 z"},"e":{"x_min":0,"x_max":444,"ha":444,"o":"m 330 144 l 350 131 q 315 61 266 26 q 217 -9 152 -9 q 87 -9 51 33 q 14 74 14 149 q 14 222 44 293 q 74 363 126 414 q 162 449 205 468 q 248 486 295 486 q 343 486 371 464 q 398 441 398 402 q 398 328 324 287 q 250 246 113 244 q 105 209 102 180 q 98 150 98 127 q 98 78 118 53 q 138 29 178 29 q 221 29 260 59 q 299 88 330 144 z m 119 270 q 226 271 280 304 q 334 337 334 401 q 334 427 318 442 q 302 458 275 458 q 223 458 184 410 q 144 363 119 270 z"},"b":{"x_min":0,"x_max":514,"ha":514,"o":"m 139 222 l 109 81 q 107 74 107 68 q 106 62 106 59 q 106 41 122 29 q 138 18 165 18 q 211 18 249 44 q 287 70 317 122 q 348 173 368 243 q 388 312 388 360 q 388 397 374 416 q 359 435 330 435 q 288 435 240 381 q 191 327 139 222 z m 150 296 q 201 385 250 428 q 299 471 350 471 q 402 471 433 432 q 464 392 464 325 q 464 187 378 89 q 292 -9 171 -9 q 144 -9 121 -3 q 99 3 77 16 l 20 -7 l 5 5 q 19 31 28 59 q 37 87 45 129 l 142 618 q 146 639 148 651 q 150 664 150 673 q 150 708 92 710 q 84 711 81 711 l 86 738 q 95 738 111 737 q 139 736 148 736 q 163 736 183 737 q 204 739 244 743 z"},"%":{"x_min":0,"x_max":799,"ha":799,"o":"m 681 221 q 681 305 659 350 q 637 395 596 395 q 554 395 530 341 q 506 287 506 191 q 506 107 528 62 q 550 17 591 17 q 632 17 656 72 q 681 126 681 221 z m 595 421 q 666 421 706 365 q 745 308 745 206 q 745 108 703 50 q 661 -9 592 -9 q 522 -9 481 47 q 441 102 441 198 q 441 301 483 361 q 524 421 595 421 z m 293 508 q 293 592 271 637 q 249 682 207 682 q 166 682 142 627 q 117 572 117 478 q 117 396 139 350 q 161 304 200 304 q 244 304 268 358 q 293 412 293 508 z m 647 708 l 195 -9 l 151 -9 l 603 708 z m 206 708 q 278 708 317 652 q 357 595 357 493 q 357 396 314 337 q 272 278 203 278 q 134 278 94 333 q 53 389 53 484 q 53 588 94 648 q 135 708 206 708 z"},"m":{"x_min":0,"x_max":845,"ha":845,"o":"m 452 333 q 508 416 553 451 q 599 486 648 486 q 691 486 716 464 q 740 442 740 404 q 740 386 733 358 q 727 331 710 284 l 652 119 q 646 102 642 88 q 639 73 639 63 q 639 48 647 40 q 656 32 671 32 q 693 32 716 55 q 738 78 767 130 l 788 119 q 756 52 720 21 q 684 -10 638 -10 q 601 -10 581 9 q 560 28 560 63 q 560 77 563 94 q 567 110 573 127 l 641 316 q 652 347 657 370 q 663 393 663 405 q 663 428 654 437 q 645 447 624 447 q 576 447 514 372 q 452 297 431 205 l 386 0 l 310 0 l 386 345 q 390 365 393 381 q 395 397 395 407 q 395 426 387 437 q 379 448 366 448 q 324 448 263 372 q 202 295 182 205 l 137 0 l 61 0 l 137 345 q 141 365 144 381 q 146 397 146 407 q 146 426 138 437 q 131 448 117 448 q 93 448 68 427 q 42 405 10 354 l -10 367 q 22 425 62 456 q 103 486 147 486 q 181 486 198 469 q 216 452 216 419 q 216 403 213 381 q 209 359 203 333 q 258 414 304 450 q 350 486 396 486 q 430 486 447 469 q 465 451 465 418 q 465 404 462 384 q 459 364 452 333 z"},"#":{"x_min":0,"x_max":769,"ha":769,"o":"m 342 424 l 293 284 l 434 284 l 484 424 z m 380 711 l 445 711 l 363 481 l 503 481 l 585 711 l 649 711 l 568 481 l 718 481 l 698 424 l 547 424 l 498 284 l 660 284 l 639 228 l 478 228 l 397 -1 l 332 -1 l 413 228 l 273 228 l 192 -1 l 128 -1 l 209 228 l 51 228 l 72 284 l 229 284 l 278 424 l 108 424 l 129 481 l 299 481 z"},",":{"x_min":0,"x_max":275,"ha":275,"o":"m -8 -142 q 52 -115 84 -83 q 117 -51 117 -20 q 117 -10 115 -5 q 112 0 108 0 q 106 0 98 -2 q 89 -5 82 -5 q 66 -5 55 8 q 44 20 44 39 q 44 64 59 80 q 74 95 99 95 q 127 95 144 74 q 161 53 161 18 q 161 -42 120 -89 q 80 -136 2 -166 z"},"n":{"x_min":0,"x_max":595,"ha":595,"o":"m 462 284 l 403 119 q 396 102 393 88 q 390 73 390 63 q 390 48 399 40 q 408 32 423 32 q 445 32 467 55 q 489 77 518 130 l 539 119 q 507 52 471 21 q 435 -10 389 -10 q 352 -10 332 9 q 311 28 311 63 q 311 77 314 94 q 318 110 324 127 l 392 316 q 404 349 409 371 q 415 394 415 405 q 415 427 406 437 q 396 447 375 447 q 327 447 265 372 q 203 297 182 205 l 137 0 l 61 0 l 137 345 q 141 365 144 381 q 146 397 146 407 q 146 426 138 437 q 131 448 117 448 q 93 448 68 427 q 42 405 10 354 l -10 367 q 22 425 62 456 q 103 486 147 486 q 181 486 198 469 q 216 452 216 419 q 216 403 213 381 q 209 359 203 333 q 259 416 304 451 q 350 486 399 486 q 442 486 467 464 q 491 442 491 404 q 491 384 484 356 q 477 327 462 284 z"},"h":{"x_min":0,"x_max":558,"ha":558,"o":"m 170 339 q 222 417 267 451 q 312 486 361 486 q 404 486 428 464 q 453 442 453 404 q 453 384 446 356 q 439 327 424 284 l 365 119 q 358 102 355 88 q 352 73 352 63 q 352 48 361 40 q 370 32 385 32 q 407 32 429 55 q 451 77 480 130 l 501 119 q 469 52 433 21 q 396 -10 351 -10 q 314 -10 294 9 q 273 28 273 63 q 273 77 276 94 q 280 110 286 127 l 354 316 q 366 349 371 371 q 377 394 377 405 q 377 427 368 437 q 358 447 337 447 q 289 447 226 371 q 163 295 144 205 l 102 0 l 26 0 l 152 618 q 156 639 158 652 q 160 665 160 673 q 160 708 102 710 q 95 711 91 711 l 96 738 q 105 738 121 737 q 149 736 158 736 q 173 736 194 737 q 214 739 254 743 z"},"z":{"x_min":0,"x_max":451,"ha":451,"o":"m 390 474 q 331 365 211 239 q 92 113 67 70 q 82 83 96 89 q 111 95 129 95 q 160 95 226 77 q 292 59 323 59 q 349 59 361 75 q 373 92 375 131 l 390 131 l 390 103 q 390 43 370 17 q 351 -10 307 -10 q 275 -10 197 13 q 119 36 79 36 q 57 36 42 28 q 27 19 16 0 l 2 10 q 59 121 185 260 q 312 398 344 443 q 323 427 302 420 q 282 413 252 413 q 222 413 179 420 q 137 427 124 427 q 104 427 87 415 q 71 403 44 366 l 30 375 q 64 435 93 461 q 122 487 155 487 q 170 487 226 475 q 282 464 321 464 q 346 464 358 469 q 371 475 379 487 z"},"B":{"x_min":0,"x_max":627,"ha":627,"o":"m 276 345 l 212 345 l 160 33 q 185 31 208 30 q 231 29 251 29 q 347 29 396 73 q 445 118 445 206 q 445 276 403 311 q 361 345 276 345 z m 9 0 l 9 32 q 49 33 65 45 q 81 57 88 98 l 170 592 q 173 612 175 627 q 177 642 177 647 q 177 666 164 674 q 150 683 110 687 l 110 719 l 205 719 l 349 719 q 451 719 502 677 q 553 635 553 550 q 553 465 499 417 q 445 368 345 363 q 438 349 486 304 q 534 260 534 189 q 534 95 468 45 q 401 -6 277 -6 q 249 -6 182 -3 q 115 0 77 0 z m 269 685 l 218 378 q 224 378 235 377 q 266 376 276 376 q 378 376 424 419 q 469 463 469 559 q 469 625 435 656 q 401 687 329 687 q 322 687 296 686 q 279 686 269 685 z"},"K":{"x_min":0,"x_max":634,"ha":634,"o":"m 336 718 l 336 685 q 295 684 280 672 q 264 661 257 620 l 210 336 q 332 448 413 542 q 494 635 494 659 q 494 670 484 677 q 474 683 452 685 l 452 718 q 457 718 466 717 q 521 714 544 714 q 561 714 610 717 q 626 718 634 718 l 634 685 l 629 685 q 582 685 528 619 l 527 618 q 474 556 423 501 q 372 446 321 397 q 408 278 497 120 q 512 94 518 83 q 535 54 554 43 q 574 33 611 32 l 611 0 q 572 1 543 2 q 515 3 498 3 q 478 3 447 2 q 415 1 372 0 l 372 32 q 404 32 415 38 q 426 43 426 59 q 426 78 401 124 q 377 170 324 250 l 262 342 l 203 294 l 176 125 q 173 105 171 90 q 169 74 169 70 q 169 51 183 43 q 196 35 236 32 l 236 0 q 191 3 166 4 q 140 5 124 5 q 108 5 82 4 q 56 3 9 0 l 9 32 q 49 33 65 45 q 81 57 88 98 l 170 592 q 173 612 175 627 q 177 642 177 647 q 177 666 163 674 q 149 683 110 685 l 110 718 q 151 715 177 714 q 204 713 222 713 q 240 713 267 714 q 294 715 336 718 z"},"R":{"x_min":0,"x_max":664,"ha":664,"o":"m 606 93 l 625 83 q 601 36 570 13 q 539 -9 497 -9 q 449 -9 424 18 q 399 44 399 96 q 399 122 406 172 q 414 221 414 245 q 414 304 381 327 q 348 350 257 350 q 240 350 231 350 q 222 350 213 349 l 176 125 q 173 104 171 89 q 169 74 169 70 q 169 51 183 43 q 196 35 236 32 l 236 0 q 191 3 166 4 q 140 5 124 5 q 108 5 82 4 q 56 3 9 0 l 9 32 q 49 33 65 45 q 81 57 88 98 l 170 592 q 173 612 175 627 q 177 642 177 647 q 177 665 164 674 q 152 683 110 691 l 110 719 q 140 717 166 716 q 191 715 212 715 q 244 715 292 717 q 341 719 357 719 q 468 719 526 675 q 584 630 584 546 q 584 464 528 418 q 472 372 362 364 q 435 347 465 311 q 496 274 496 204 q 496 186 493 149 q 490 111 490 92 q 490 66 503 51 q 517 35 538 35 q 557 35 573 49 q 589 63 606 93 z m 269 686 l 218 381 l 221 381 q 262 379 282 379 q 383 379 439 426 q 494 473 494 559 q 494 625 458 658 q 421 691 348 691 q 335 691 317 690 q 300 689 269 686 z"},"T":{"x_min":0,"x_max":650,"ha":650,"o":"m 210 718 l 562 718 q 589 718 615 719 q 642 720 668 722 l 668 716 q 664 586 664 525 l 640 525 l 640 539 q 640 619 611 652 q 583 685 513 685 l 414 685 l 322 125 q 318 105 316 90 q 314 74 314 70 q 314 50 330 41 q 347 32 381 32 l 398 32 l 398 0 q 343 3 315 4 q 288 5 270 5 q 252 5 223 4 q 193 3 141 0 l 141 32 l 155 32 q 193 32 210 44 q 227 56 234 98 l 332 685 l 224 685 q 149 685 113 651 q 76 617 61 534 l 34 534 q 42 565 58 628 q 74 690 82 722 q 100 720 120 719 q 141 718 177 718 z"},"P":{"x_min":0,"x_max":593,"ha":593,"o":"m 176 125 q 173 107 171 91 q 169 76 169 70 q 169 48 187 40 q 206 32 260 32 l 260 0 q 209 3 178 4 q 146 5 124 5 q 113 5 92 4 q 72 3 9 0 l 9 32 q 49 33 65 45 q 81 57 88 98 l 170 592 q 173 612 175 627 q 177 642 177 647 q 177 666 163 674 q 150 683 110 686 l 110 719 q 139 717 159 717 q 179 716 193 716 q 212 716 258 718 q 304 719 330 719 q 445 719 507 668 q 569 617 569 522 q 569 416 498 363 q 428 310 286 310 q 267 310 218 313 q 211 314 208 314 z m 212 346 q 219 346 231 345 q 261 344 270 344 q 381 344 430 389 q 479 434 479 535 q 479 615 438 651 q 397 686 305 686 q 291 686 284 686 q 276 686 270 685 z"},"|":{"x_min":0,"x_max":500,"ha":500,"o":"m 219 764 l 281 764 l 281 -236 l 219 -236 z"},"t":{"x_min":0,"x_max":354,"ha":354,"o":"m 232 617 l 199 454 l 316 454 l 311 426 l 193 426 l 126 93 q 125 86 125 82 q 124 79 124 76 q 124 55 135 42 q 146 29 164 29 q 192 29 221 60 q 251 91 278 148 l 296 137 q 266 64 227 28 q 188 -9 139 -9 q 95 -9 71 12 q 48 34 48 74 q 48 83 50 96 q 52 110 58 134 l 120 426 l 41 426 l 45 454 l 126 454 l 162 617 z"},"M":{"x_min":0,"x_max":850,"ha":850,"o":"m 294 718 l 387 164 l 670 718 q 685 717 710 715 q 735 713 746 713 q 758 713 784 715 q 811 717 825 718 l 825 685 q 821 686 817 686 q 813 686 808 686 q 786 686 776 672 q 765 658 757 608 l 684 121 q 682 108 681 96 q 680 84 680 72 q 680 48 693 40 q 707 32 753 32 l 753 0 q 719 2 689 3 q 659 4 637 4 q 610 4 579 3 q 547 2 513 0 l 513 32 l 518 32 q 560 32 575 48 q 591 64 602 135 l 682 667 l 351 28 l 329 11 l 222 658 l 117 113 q 115 104 113 92 q 110 75 110 72 q 110 50 125 41 q 141 32 182 32 l 182 0 q 155 2 130 3 q 106 4 87 4 q 68 4 45 3 q 21 2 -6 0 l -6 32 l -2 32 q 61 32 82 129 q 83 135 84 139 l 180 597 q 183 612 185 627 q 187 642 187 650 q 187 667 172 675 q 156 682 110 685 l 110 718 q 149 715 170 714 q 190 713 204 713 q 216 713 235 714 q 254 715 294 718 z"},"g":{"x_min":0,"x_max":502,"ha":502,"o":"m 323 215 l 359 387 q 353 419 332 438 q 311 456 283 456 q 250 456 219 430 q 188 404 163 355 q 136 303 119 242 q 103 182 103 139 q 103 99 119 76 q 135 54 164 54 q 183 54 202 64 q 220 75 241 97 q 292 150 323 215 q 323 215 323 215 z m 379 477 l 453 477 q 420 336 387 168 q 354 1 347 -26 q 322 -126 266 -174 q 210 -222 117 -222 q 53 -222 15 -195 q -23 -168 -23 -123 q -23 -101 -13 -87 q -4 -73 12 -73 q 26 -73 34 -83 q 42 -93 42 -110 q 42 -122 34 -137 q 27 -153 27 -159 q 27 -172 53 -183 q 80 -194 114 -194 q 189 -194 229 -130 q 270 -66 310 150 q 263 75 220 42 q 178 8 131 8 q 80 8 49 46 q 19 84 19 150 q 19 206 40 266 q 61 327 98 378 q 136 430 181 458 q 227 486 272 486 q 304 486 328 473 q 353 460 370 434 z"},"j":{"x_min":0,"x_max":308,"ha":308,"o":"m 155 25 q 129 -97 76 -160 q 23 -222 -55 -222 q -94 -222 -118 -203 q -141 -184 -141 -153 q -141 -136 -132 -126 q -123 -116 -108 -116 q -87 -116 -76 -132 q -65 -148 -65 -179 q -65 -181 -65 -187 q -66 -192 -66 -195 q -60 -198 -55 -199 q -51 -200 -47 -200 q -6 -200 19 -159 q 44 -118 77 28 l 159 395 q 160 399 161 404 q 161 408 161 416 q 161 433 153 442 q 146 451 131 451 q 105 451 79 424 q 53 396 33 347 l 9 356 q 37 422 75 455 q 112 487 162 487 q 197 487 217 470 q 236 453 236 421 q 236 412 234 399 q 232 385 228 364 z m 206 670 q 224 670 237 659 q 250 649 250 634 q 250 608 235 591 q 219 574 196 574 q 180 574 168 586 q 157 599 157 616 q 157 639 171 655 q 185 670 206 670 z"},"i":{"x_min":0,"x_max":324,"ha":324,"o":"m 141 105 q 139 96 137 88 q 136 80 136 73 q 136 53 144 43 q 152 33 169 33 q 191 33 213 55 q 234 77 264 130 l 285 119 q 252 51 217 21 q 181 -10 135 -10 q 100 -10 79 10 q 58 29 58 63 q 58 73 61 86 q 63 100 71 127 l 142 370 q 146 381 147 391 q 149 401 149 409 q 149 424 141 433 q 134 442 121 442 q 103 442 82 420 q 61 397 35 349 l 12 360 q 39 421 78 454 q 117 487 163 487 q 192 487 211 471 q 229 455 229 430 q 229 411 216 366 l 216 364 z m 206 670 q 224 670 237 659 q 250 649 250 634 q 250 608 235 591 q 219 574 196 574 q 180 574 168 586 q 157 599 157 616 q 157 639 171 655 q 185 670 206 670 z"},"y":{"x_min":0,"x_max":556,"ha":556,"o":"m 187 235 q 184 224 178 204 q 155 127 155 100 q 155 80 164 70 q 173 60 192 60 q 214 60 240 80 q 266 99 296 138 q 322 172 343 208 q 363 244 366 257 l 415 477 l 490 477 l 409 101 q 367 -96 315 -159 q 263 -222 167 -222 q 105 -222 65 -199 q 25 -176 25 -143 q 25 -127 34 -118 q 42 -109 58 -109 q 79 -109 94 -128 q 108 -147 108 -176 l 108 -183 q 118 -188 131 -191 q 144 -194 162 -194 q 236 -194 274 -129 q 311 -65 351 177 q 302 96 250 52 q 197 8 148 8 q 114 8 97 26 q 79 44 79 78 q 79 109 104 194 l 107 206 l 150 354 q 154 368 157 384 q 159 399 159 412 q 159 428 151 436 q 143 444 127 444 q 105 444 82 421 q 60 398 31 347 l 10 357 q 41 423 79 455 q 117 487 164 487 q 197 487 215 470 q 233 453 233 421 q 233 407 229 387 q 225 367 217 338 z"},"@":{"x_min":0,"x_max":986,"ha":986,"o":"m 581 164 q 551 112 513 87 q 476 61 430 61 q 369 61 332 106 q 295 151 295 225 q 295 278 319 331 q 343 383 386 425 q 418 456 457 474 q 495 491 532 491 q 575 491 602 467 q 629 443 640 396 l 666 484 l 736 484 l 653 186 q 653 185 652 184 q 644 155 644 133 q 644 110 656 96 q 669 83 690 83 q 707 83 729 92 q 750 100 770 115 q 830 159 861 228 q 893 297 893 382 q 893 450 869 505 q 844 560 794 604 q 750 643 688 664 q 627 685 558 685 q 467 685 391 656 q 316 628 257 571 q 193 509 161 427 q 128 346 128 247 q 128 162 156 98 q 184 35 244 -16 q 300 -63 372 -88 q 443 -112 528 -112 q 607 -112 683 -86 q 758 -61 827 -11 l 842 -29 q 770 -83 689 -110 q 608 -137 522 -137 q 431 -137 355 -115 q 279 -92 221 -47 q 147 8 109 87 q 71 166 71 262 q 71 362 113 448 q 155 535 235 601 q 299 655 377 682 q 455 709 545 709 q 714 709 815 618 q 916 526 916 374 q 916 297 888 229 q 859 161 808 114 q 780 88 748 75 q 715 61 682 61 q 635 61 609 87 q 584 112 581 164 z m 536 471 q 510 471 488 456 q 466 441 443 407 q 408 354 387 293 q 366 231 366 183 q 366 138 386 111 q 406 85 439 85 q 471 85 500 107 q 530 128 557 172 q 585 218 602 271 q 618 324 618 367 q 618 413 595 442 q 572 471 536 471 z"},".":{"x_min":0,"x_max":275,"ha":275,"o":"m 99 95 q 119 95 134 80 q 149 65 149 45 q 149 23 135 9 q 120 -5 99 -5 q 78 -5 63 10 q 49 24 49 45 q 49 65 64 80 q 79 95 99 95 z"},"p":{"x_min":0,"x_max":553,"ha":553,"o":"m 203 269 l 171 103 q 183 73 204 58 q 226 42 254 42 q 283 42 309 60 q 335 77 356 110 q 383 153 401 221 q 419 289 419 347 q 419 392 403 416 q 386 440 355 440 q 317 440 279 397 q 241 354 203 269 z m 164 62 l 129 -110 q 126 -127 125 -135 q 124 -143 124 -148 q 124 -169 135 -177 q 146 -184 199 -185 l 194 -213 q 165 -211 137 -210 q 109 -209 84 -209 q 63 -209 38 -210 q 12 -211 -17 -213 l -12 -185 l -7 -185 q 39 -185 49 -135 q 50 -128 51 -124 l 143 345 q 147 368 149 383 q 151 398 151 408 q 151 425 145 433 q 138 440 121 440 q 98 440 71 418 q 45 396 17 354 l -3 367 q 30 425 69 456 q 109 486 153 486 q 187 486 204 469 q 222 452 222 420 q 222 407 220 390 q 218 372 213 349 q 256 422 297 454 q 338 486 388 486 q 440 486 469 443 q 499 400 499 325 q 499 193 431 100 q 363 8 269 8 q 234 8 207 22 q 180 36 164 62 z"},"X":{"x_min":0,"x_max":637,"ha":637,"o":"m 302 718 l 302 685 q 267 685 253 679 q 239 673 239 658 q 239 649 242 638 q 245 627 251 616 l 341 428 l 477 620 q 483 629 487 638 q 490 648 490 656 q 490 668 477 675 q 463 683 437 685 l 437 718 q 469 715 492 714 q 515 713 531 713 q 545 713 567 714 q 589 715 624 718 l 624 685 q 591 684 567 668 q 543 653 507 603 l 355 397 l 479 132 q 483 123 490 107 q 524 32 588 32 l 588 0 q 528 3 506 4 q 484 5 472 5 q 451 5 422 4 q 393 3 345 0 l 345 32 q 379 32 394 38 q 408 44 408 59 q 408 67 405 78 q 402 89 396 102 l 291 327 l 129 97 q 122 87 119 79 q 115 70 115 63 q 115 50 128 42 q 141 35 169 32 l 169 0 q 128 3 108 4 q 88 5 75 5 q 62 5 41 4 q 21 3 -18 0 l -18 32 q 14 33 38 49 q 62 64 99 115 l 277 356 l 172 586 q 145 647 122 666 q 99 685 62 685 l 59 685 l 59 718 q 114 715 139 714 q 163 713 178 713 q 196 713 224 714 q 251 715 302 718 z"},"*":{"x_min":0,"x_max":454,"ha":454,"o":"m 254 526 q 257 503 262 471 q 267 439 267 431 q 267 415 260 404 q 254 394 241 391 q 228 394 221 404 q 215 414 215 431 q 215 440 220 472 q 225 504 228 526 z m 219 531 q 203 520 179 500 q 135 465 118 465 q 112 465 106 468 q 100 470 95 475 q 94 478 94 480 q 94 482 94 486 q 94 511 173 541 q 194 549 206 554 z m 386 475 q 380 470 375 467 q 369 465 363 465 q 345 465 292 508 q 273 523 262 532 l 275 554 q 291 547 318 537 q 387 510 387 486 q 387 483 387 481 q 387 479 386 475 z m 206 564 q 194 569 173 577 q 94 607 94 632 q 94 636 94 639 q 95 641 95 643 q 100 648 106 651 q 111 653 118 653 q 136 653 179 617 q 204 597 219 586 z m 275 564 l 262 586 q 276 596 298 615 q 345 653 363 653 q 370 653 375 650 q 381 648 386 643 q 387 640 387 637 q 387 635 387 632 q 387 608 314 580 q 290 570 275 564 z m 254 591 l 228 591 q 226 612 220 645 q 215 678 215 687 q 215 704 221 714 q 228 724 241 727 q 254 724 260 714 q 267 704 267 687 q 267 679 262 647 q 257 614 254 591 z"},"Y":{"x_min":0,"x_max":539,"ha":539,"o":"m 238 718 l 238 685 q 204 682 193 676 q 181 670 181 657 q 181 651 184 643 q 186 634 193 617 l 304 349 l 459 619 q 465 629 469 640 q 472 651 472 658 q 472 672 459 678 q 445 684 409 685 l 409 718 q 441 715 462 714 q 483 713 499 713 q 514 713 536 714 q 558 715 592 718 l 592 685 q 563 683 544 670 q 526 657 499 613 l 312 301 l 282 125 q 279 107 277 91 q 275 76 275 70 q 275 51 289 43 q 302 35 342 32 l 342 0 q 296 3 271 4 q 247 5 231 5 q 215 5 189 4 q 163 3 116 0 l 116 32 q 156 33 172 45 q 188 57 195 98 l 231 308 l 105 604 q 84 652 67 667 q 50 682 21 685 l 21 718 q 57 715 82 714 q 106 713 124 713 q 140 713 165 714 q 189 715 238 718 z"},"c":{"x_min":0,"x_max":447,"ha":447,"o":"m 384 147 q 354 66 307 28 q 260 -10 190 -10 q 112 -10 65 43 q 19 95 19 183 q 19 306 94 396 q 169 486 270 486 q 327 486 362 458 q 398 429 398 384 q 398 364 389 353 q 381 341 366 341 q 350 341 341 354 q 332 367 332 390 q 332 399 333 412 q 335 425 335 429 q 335 443 321 451 q 307 458 280 458 q 207 458 157 376 q 108 294 108 173 q 108 104 135 66 q 163 28 213 28 q 261 28 299 61 q 337 94 361 157 z"},"!":{"x_min":0,"x_max":343,"ha":343,"o":"m 119 95 q 139 95 154 80 q 169 65 169 45 q 169 23 155 9 q 140 -5 119 -5 q 98 -5 83 10 q 69 24 69 45 q 69 65 84 80 q 99 95 119 95 z m 144 159 l 120 164 q 142 306 155 463 q 167 620 171 638 q 179 678 193 699 q 208 721 232 727 q 247 717 254 700 q 261 683 261 658 q 261 624 216 458 q 170 292 144 159 z"},"/":{"x_min":0,"x_max":296,"ha":296,"o":"m 338 727 l -27 -93 l -75 -93 l 290 727 z"},"[":{"x_min":0,"x_max":310,"ha":310,"o":"m 334 708 q 315 701 294 698 q 273 695 246 695 l 233 695 l 90 -137 l 97 -137 q 115 -137 136 -140 q 158 -144 183 -150 l 179 -175 q 157 -169 136 -167 q 115 -164 93 -164 q 75 -164 59 -167 q 43 -169 27 -175 l 183 733 q 200 727 216 724 q 232 721 248 721 q 268 721 289 724 q 311 727 339 733 z"},"6":{"x_min":0,"x_max":551,"ha":551,"o":"m 131 292 q 130 278 129 264 q 129 250 129 231 q 129 136 166 78 q 203 20 262 20 q 325 20 369 87 q 413 154 413 255 q 413 326 383 365 q 353 403 298 403 q 252 403 210 375 q 167 347 131 292 z m 131 336 q 170 392 215 418 q 259 444 314 444 q 392 444 441 391 q 490 338 490 252 q 490 141 424 66 q 357 -9 260 -9 q 164 -9 104 68 q 45 144 45 270 q 45 458 131 583 q 218 709 344 709 q 418 709 465 667 q 511 625 511 560 q 511 526 499 505 q 487 485 468 485 q 454 485 447 494 q 439 503 439 519 q 439 540 448 559 q 458 578 474 590 q 463 632 433 655 q 403 677 356 677 q 271 677 210 586 q 149 495 131 336 z"},"r":{"x_min":0,"x_max":407,"ha":407,"o":"m 182 205 l 137 0 l 61 0 l 137 345 q 141 365 144 381 q 146 397 146 407 q 146 426 138 437 q 131 448 117 448 q 93 448 68 427 q 42 405 10 354 l -10 367 q 22 425 62 456 q 103 486 147 486 q 181 486 198 469 q 216 452 216 419 q 216 403 213 381 q 209 359 203 333 q 240 410 277 448 q 314 486 353 486 q 380 486 397 468 q 413 451 413 421 q 413 399 403 386 q 392 373 375 373 q 357 373 346 385 q 335 397 335 417 q 335 419 335 426 q 336 432 336 436 q 336 441 333 445 q 331 448 327 448 q 298 448 251 375 q 204 301 182 205 z"},"2":{"x_min":0,"x_max":551,"ha":551,"o":"m 66 39 q 106 61 138 71 q 169 81 196 81 q 220 81 275 72 q 330 62 359 62 q 396 62 417 82 q 438 102 458 159 l 480 153 q 454 45 431 18 q 409 -9 361 -9 q 315 -9 234 5 q 153 19 121 19 q 96 19 73 13 q 50 6 25 -7 l 10 17 q 74 96 193 194 q 213 211 223 219 q 320 301 360 366 q 399 431 399 504 q 399 578 358 622 q 317 666 250 666 q 184 666 140 625 q 96 585 96 526 q 96 515 98 504 q 100 493 103 481 q 136 477 155 461 q 173 446 173 423 q 173 407 163 397 q 154 387 138 387 q 107 387 85 423 q 62 459 62 512 q 62 598 121 653 q 179 709 271 709 q 366 709 423 652 q 481 595 481 501 q 481 431 451 375 q 421 318 357 268 q 344 258 236 185 q 128 112 66 39 z"},"{":{"x_min":0,"x_max":500,"ha":500,"o":"m 413 740 l 413 715 q 344 714 318 688 q 293 662 293 586 l 293 516 q 293 406 263 365 q 233 325 153 310 q 233 295 263 255 q 293 214 293 104 l 293 34 q 293 -42 318 -68 q 343 -93 413 -94 l 413 -119 l 408 -119 q 302 -119 263 -83 q 223 -47 223 50 l 223 154 q 223 231 194 260 q 166 290 86 296 l 86 325 q 167 333 195 361 q 223 390 223 467 l 223 571 q 223 668 263 704 q 302 740 408 740 z"},"9":{"x_min":0,"x_max":551,"ha":551,"o":"m 410 338 q 373 292 325 266 q 277 240 227 240 q 156 240 113 291 q 70 341 70 425 q 70 547 135 628 q 201 709 298 709 q 390 709 445 636 q 500 563 500 439 q 500 248 413 120 q 325 -9 198 -9 q 126 -9 78 33 q 31 75 31 137 q 31 166 44 185 q 57 203 76 203 q 90 203 98 194 q 105 185 105 166 q 105 147 94 128 q 84 109 67 98 q 86 61 117 42 q 148 22 188 22 q 268 22 327 106 q 386 189 410 338 z m 424 415 q 424 417 425 422 q 430 466 430 488 q 430 578 398 629 q 365 679 308 679 q 241 679 193 607 q 145 534 145 429 q 145 361 176 322 q 207 282 259 282 q 307 282 350 317 q 393 351 424 415 z"}," ":{"x_min":0,"x_max":275,"ha":275,"o":""},"I":{"x_min":0,"x_max":345,"ha":345,"o":"m 336 718 l 336 685 q 295 684 280 672 q 264 661 257 620 l 176 125 q 173 104 171 89 q 169 74 169 70 q 169 51 183 43 q 196 35 236 32 l 236 0 q 191 3 166 4 q 140 5 124 5 q 108 5 82 4 q 56 3 9 0 l 9 32 q 49 33 65 45 q 81 57 88 98 l 170 592 q 173 612 175 627 q 177 642 177 647 q 177 666 163 674 q 149 683 110 685 l 110 718 q 151 715 177 714 q 204 713 222 713 q 240 713 267 714 q 294 715 336 718 z"},"H":{"x_min":0,"x_max":778,"ha":778,"o":"m 343 718 l 343 685 q 294 683 279 672 q 264 661 257 620 l 220 389 l 570 389 l 603 592 q 606 612 608 627 q 610 642 610 647 q 610 666 596 674 q 582 683 543 685 l 543 718 q 584 715 610 714 q 636 713 654 713 q 673 713 700 714 q 727 715 769 718 l 769 685 q 729 684 713 672 q 697 661 690 620 l 609 125 q 607 116 605 102 q 601 73 601 70 q 601 51 615 43 q 629 35 669 32 l 669 0 q 621 3 596 4 q 572 5 557 5 q 540 5 512 4 q 485 3 435 0 l 435 32 q 483 34 499 45 q 514 57 521 98 l 564 356 l 215 356 l 176 125 q 173 107 171 92 q 169 76 169 70 q 169 51 183 43 q 196 35 236 32 l 236 0 q 191 3 166 4 q 140 5 124 5 q 108 5 82 4 q 56 3 9 0 l 9 32 q 49 33 65 45 q 81 57 88 98 l 170 592 q 173 612 175 627 q 177 642 177 647 q 177 666 163 674 q 149 683 110 685 l 110 718 q 154 715 180 714 q 206 713 222 713 q 242 713 271 714 q 299 715 343 718 z"},"4":{"x_min":0,"x_max":551,"ha":551,"o":"m 475 684 q 353 572 255 464 q 157 356 91 262 l 342 262 l 389 562 l 458 577 l 408 262 l 483 264 l 458 205 l 399 205 l 387 117 q 385 104 384 92 q 383 80 383 75 q 383 52 396 41 q 410 29 437 29 q 439 29 443 29 q 447 30 450 30 l 445 0 q 396 3 368 4 q 341 5 322 5 q 305 5 278 4 q 252 3 202 0 l 207 30 q 270 30 293 49 q 315 68 327 158 l 333 205 l 28 205 l 28 231 q 128 359 233 479 q 337 599 448 713 z"},"~":{"x_min":0,"x_max":833,"ha":833,"o":"m 747 370 l 747 306 q 698 271 651 253 q 604 236 558 236 q 537 236 514 240 q 491 245 465 253 q 450 258 422 268 q 324 303 275 303 q 234 303 190 285 q 146 267 87 225 l 87 290 q 138 326 186 343 q 233 361 276 361 q 303 361 333 355 q 362 349 418 329 q 424 327 435 323 q 515 294 559 294 q 601 294 645 312 q 689 330 747 370 z"},"D":{"x_min":0,"x_max":701,"ha":701,"o":"m 341 685 l 270 685 l 161 32 l 211 32 q 306 32 350 42 q 394 51 427 73 q 491 115 528 209 q 565 304 565 428 q 565 566 514 626 q 462 685 341 685 z m 296 718 q 395 718 441 710 q 487 702 523 684 q 590 652 627 580 q 665 508 665 412 q 665 307 625 215 q 584 123 515 70 q 466 32 406 16 q 346 0 214 0 l 204 0 l 9 0 l 9 32 q 49 33 65 45 q 81 57 88 98 l 170 592 q 173 612 175 627 q 177 642 177 647 q 177 666 163 674 q 149 683 110 685 l 110 718 z"},"^":{"x_min":0,"x_max":1000,"ha":1000,"o":"m 456 714 l 543 714 l 797 438 l 752 438 l 499 651 l 245 438 l 201 438 z"},"0":{"x_min":0,"x_max":551,"ha":551,"o":"m 430 457 q 430 566 401 622 q 372 678 316 678 q 232 678 177 554 q 121 430 121 236 q 121 129 150 75 q 180 20 237 20 q 318 20 374 144 q 430 268 430 457 z m 321 708 q 410 708 462 637 q 514 566 514 445 q 514 243 434 117 q 354 -9 230 -9 q 142 -9 89 62 q 36 134 36 255 q 36 456 117 582 q 197 708 321 708 z"},"F":{"x_min":0,"x_max":579,"ha":579,"o":"m 567 718 l 561 524 l 535 524 q 536 533 536 541 q 536 549 536 556 q 536 629 509 657 q 482 685 404 685 l 269 685 l 219 381 l 264 381 q 357 381 383 401 q 408 422 417 481 l 442 481 q 431 425 422 362 q 412 299 404 226 l 378 226 q 378 233 380 246 q 382 273 382 281 q 382 322 366 335 q 350 348 294 348 l 213 348 l 176 125 q 173 107 171 92 q 169 76 169 70 q 169 50 185 41 q 202 32 236 32 l 257 32 l 257 0 q 209 2 178 4 q 146 5 124 5 q 113 5 92 4 q 72 3 9 0 l 9 32 q 49 33 65 45 q 81 57 88 98 l 170 592 q 173 612 175 627 q 177 642 177 647 q 177 666 163 674 q 149 683 110 685 l 110 718 z"},"`":{"x_min":0,"x_max":500,"ha":500,"o":"m 382 540 l 343 540 l 213 637 q 198 648 191 658 q 184 668 184 678 q 184 694 195 705 q 206 716 221 716 q 231 716 242 709 q 252 703 262 691 z"},"k":{"x_min":0,"x_max":551,"ha":551,"o":"m 155 260 q 213 375 269 430 q 325 486 382 486 q 415 486 434 467 q 452 448 452 414 q 452 358 399 308 q 345 258 255 231 q 296 228 315 212 q 334 196 345 152 q 349 138 353 113 q 365 46 402 46 q 425 46 447 69 q 469 91 490 139 l 508 129 q 476 56 442 23 q 408 -10 364 -10 q 296 -10 276 139 l 276 143 q 275 146 275 152 q 267 209 222 214 l 222 243 q 304 263 347 302 q 390 342 390 398 q 390 423 380 435 q 370 447 349 447 q 327 447 303 429 q 279 412 254 379 q 208 316 171 245 q 135 175 130 147 l 102 0 l 26 0 l 152 618 q 156 639 158 652 q 160 665 160 673 q 160 708 101 710 q 96 711 94 711 l 96 738 q 105 738 121 737 q 149 736 158 736 q 173 736 194 737 q 214 739 254 743 z"},"u":{"x_min":0,"x_max":595,"ha":595,"o":"m 159 160 q 148 130 143 108 q 137 86 137 72 q 137 49 146 40 q 155 30 176 30 q 224 30 286 105 q 349 180 369 272 l 414 477 l 491 477 l 414 131 q 410 110 407 94 q 405 78 405 69 q 405 52 412 41 q 420 30 431 30 q 458 30 483 50 q 508 71 541 122 l 561 110 q 527 51 488 21 q 448 -10 404 -10 q 371 -10 353 7 q 336 24 336 57 q 336 74 339 96 q 343 118 349 144 q 292 60 247 25 q 202 -10 152 -10 q 109 -10 85 12 q 61 33 61 72 q 61 92 68 120 q 74 147 90 192 l 148 357 q 154 374 158 388 q 161 403 161 413 q 161 427 154 436 q 146 444 134 444 q 113 444 87 418 q 61 392 35 345 l 12 357 q 47 421 85 454 q 124 486 165 486 q 199 486 219 467 q 239 448 239 416 q 239 402 236 385 q 232 368 226 350 z"},"]":{"x_min":0,"x_max":310,"ha":310,"o":"m 258 733 l 103 -175 q 88 -169 72 -167 q 55 -164 37 -164 q 16 -164 -6 -167 q -28 -169 -53 -175 l -49 -150 q -27 -144 -5 -140 q 17 -137 42 -137 l 53 -137 l 196 695 l 189 695 q 171 695 149 698 q 127 702 102 708 l 107 733 q 129 728 150 725 q 170 722 192 722 q 209 722 226 725 q 242 728 258 733 z"},"U":{"x_min":0,"x_max":748,"ha":748,"o":"m 343 718 l 343 685 q 295 683 280 672 q 264 661 257 620 l 200 287 q 192 242 188 214 q 185 186 185 166 q 185 101 226 66 q 267 32 345 32 q 403 32 447 53 q 491 75 517 116 q 551 170 574 318 q 576 332 577 339 l 616 592 q 619 612 621 626 q 623 641 623 647 q 623 667 607 676 q 590 684 545 685 l 545 718 q 579 715 606 714 q 632 713 653 713 q 665 713 683 714 q 701 715 740 718 l 740 685 q 700 684 685 672 q 669 661 662 620 l 605 279 q 579 119 513 55 q 447 -9 313 -9 q 214 -9 157 38 q 99 84 99 164 q 99 188 103 219 q 106 251 117 309 l 169 592 q 172 610 174 625 q 176 641 176 647 q 176 666 162 674 q 148 683 109 685 l 109 718 q 153 715 179 714 q 205 713 221 713 q 241 713 270 714 q 298 715 343 718 z"},"o":{"x_min":0,"x_max":490,"ha":490,"o":"m 357 357 q 357 405 336 432 q 314 459 276 459 q 244 459 215 439 q 187 419 164 382 q 134 332 117 261 q 99 190 99 119 q 99 72 121 45 q 143 18 181 18 q 214 18 242 37 q 270 56 292 94 q 322 144 339 215 q 357 286 357 357 z m 273 486 q 348 486 393 438 q 437 391 437 310 q 437 175 363 83 q 289 -9 183 -9 q 106 -9 63 41 q 19 90 19 178 q 19 304 95 395 q 170 486 273 486 z"},"N":{"x_min":0,"x_max":748,"ha":748,"o":"m 225 718 l 561 144 l 631 548 q 635 573 638 595 q 640 617 640 630 q 640 659 623 672 q 606 684 564 685 l 564 718 q 599 715 622 714 q 645 713 662 713 q 675 713 696 714 q 717 715 753 718 l 753 685 l 750 685 q 714 685 699 668 q 684 651 670 569 l 571 6 l 552 -5 l 201 599 l 127 170 q 123 145 120 123 q 118 101 118 87 q 118 58 135 45 q 152 33 194 32 l 194 0 q 151 3 130 4 q 109 5 96 5 q 86 5 68 4 q 50 3 6 0 l 6 32 l 9 32 q 67 32 86 139 q 87 145 88 148 l 167 599 q 169 609 170 616 q 171 624 171 626 q 171 654 145 669 q 120 685 73 685 l 69 685 l 69 718 q 96 715 114 714 q 132 713 145 713 q 159 713 178 714 q 197 715 225 718 z"},"+":{"x_min":0,"x_max":833,"ha":833,"o":"m 388 596 l 446 596 l 446 327 l 709 327 l 709 270 l 446 270 l 446 0 l 388 0 l 388 270 l 124 270 l 124 327 l 388 327 z"},"G":{"x_min":0,"x_max":704,"ha":704,"o":"m 639 668 l 660 668 q 653 616 645 559 q 637 502 627 432 l 603 432 q 604 438 604 445 q 604 452 604 465 q 604 574 555 633 q 506 692 415 692 q 288 692 209 577 q 131 462 131 273 q 131 156 184 90 q 238 25 334 25 q 371 25 407 36 q 442 47 479 70 l 495 177 q 496 182 497 188 q 497 194 497 204 q 497 227 483 235 q 469 243 410 244 l 410 277 q 456 274 483 273 q 510 272 528 272 q 551 272 583 273 q 615 274 660 277 l 660 244 q 613 241 599 230 q 585 219 576 165 l 548 0 l 525 0 l 521 51 q 471 21 421 6 q 371 -9 316 -9 q 182 -9 107 69 q 32 147 32 287 q 32 477 140 602 q 247 727 410 727 q 478 727 530 703 q 583 679 622 630 z"},"q":{"x_min":0,"x_max":502,"ha":502,"o":"m 321 215 l 355 373 q 351 411 331 433 q 310 456 281 456 q 250 456 219 429 q 187 402 163 355 q 136 302 119 242 q 103 182 103 139 q 103 99 119 76 q 135 54 164 54 q 183 54 202 64 q 220 75 241 97 q 271 129 295 167 q 319 204 321 215 z m 435 486 l 455 486 l 323 -110 q 321 -118 320 -126 q 319 -134 319 -143 q 319 -164 329 -173 q 339 -183 362 -185 l 356 -213 q 327 -210 304 -209 q 281 -208 261 -208 q 245 -208 220 -209 q 195 -210 151 -213 l 156 -185 q 202 -184 219 -172 q 236 -160 244 -124 l 304 143 q 262 75 219 41 q 177 8 131 8 q 80 8 51 46 q 21 85 21 152 q 21 209 41 269 q 61 329 97 378 q 135 429 181 458 q 227 486 272 486 q 309 486 334 470 q 359 454 375 420 q 394 434 409 450 q 424 467 435 486 z"},"d":{"x_min":0,"x_max":553,"ha":553,"o":"m 320 205 l 355 354 q 350 395 331 417 q 312 438 282 438 q 250 438 219 412 q 188 385 163 336 q 136 284 119 223 q 103 163 103 119 q 103 79 119 56 q 135 34 164 34 q 182 34 201 45 q 220 56 241 78 q 270 108 292 145 q 314 182 320 205 z m 376 122 q 375 115 374 106 q 373 97 373 87 q 373 62 383 48 q 393 34 409 34 q 427 34 448 57 q 469 79 497 130 l 518 119 q 486 53 449 22 q 413 -9 366 -9 q 334 -9 317 12 q 300 32 300 70 q 300 81 302 94 q 305 108 312 134 q 264 58 221 24 q 179 -9 131 -9 q 79 -9 49 28 q 19 65 19 131 q 19 190 39 250 q 59 310 95 359 q 132 410 179 438 q 226 466 272 466 q 307 466 330 453 q 354 440 366 413 l 413 618 q 417 634 419 648 q 421 663 421 673 q 421 708 354 710 q 343 711 338 711 l 343 738 q 349 738 361 737 q 399 736 413 736 q 431 736 454 738 q 477 739 515 743 z"},"1":{"x_min":0,"x_max":551,"ha":551,"o":"m 281 148 q 277 123 275 107 q 273 91 273 81 q 273 52 287 41 q 301 30 340 30 l 354 30 l 350 0 q 297 3 267 4 q 238 5 218 5 q 200 5 171 4 q 143 3 89 0 l 94 30 l 100 30 q 190 30 213 154 l 214 158 l 280 532 q 283 547 285 562 q 286 578 286 592 q 286 610 279 617 q 272 625 257 625 q 253 625 245 623 q 237 622 227 619 l 163 600 l 156 625 q 210 641 266 661 q 322 681 380 705 z"},"5":{"x_min":0,"x_max":551,"ha":551,"o":"m 475 693 l 491 679 q 460 637 435 619 q 410 601 382 601 q 346 601 298 607 q 250 614 187 627 l 141 382 q 173 403 205 414 q 237 424 271 424 q 361 424 412 373 q 464 323 464 234 q 464 133 392 62 q 319 -9 215 -9 q 137 -9 89 30 q 41 68 41 129 q 41 163 52 182 q 62 201 81 201 q 93 201 101 192 q 109 183 109 168 q 109 149 102 133 q 95 116 79 100 q 86 67 119 47 q 153 26 200 26 q 280 26 332 85 q 384 145 384 237 q 384 308 347 349 q 310 390 245 390 q 215 390 188 380 q 160 369 131 347 l 105 365 l 165 705 q 248 686 314 675 q 381 664 411 664 q 430 664 443 670 q 457 676 475 693 z"}}}
